<svg xmlns="http://www.w3.org/2000/svg" viewBox="0 0 24 24"><path fill="#10b8c4" d="M12 2.2a9.7 9.7 0 0 0-8.39 14.57L2.2 21.8l5.18-1.36A9.7 9.7 0 1 0 12 2.2Zm0 17.6c-1.5 0-2.96-.4-4.24-1.17l-.3-.18-3.08.81.82-3-.2-.31A7.48 7.48 0 1 1 12 19.8Zm4.1-5.6c-.22-.11-1.3-.64-1.5-.71-.2-.08-.35-.11-.5.11-.15.22-.57.71-.7.85-.13.15-.26.16-.48.05-.22-.11-.92-.34-1.75-1.08-.65-.58-1.09-1.29-1.22-1.5-.13-.22-.01-.34.1-.45.1-.1.22-.26.33-.39.11-.13.15-.22.22-.37.07-.15.04-.28-.02-.39-.05-.11-.5-1.2-.68-1.65-.18-.43-.36-.37-.5-.38h-.43c-.15 0-.39.05-.59.28-.2.22-.77.75-.77 1.83s.79 2.12.9 2.27c.11.15 1.55 2.37 3.75 3.32.52.22.93.35 1.25.45.53.17 1.01.15 1.39.09.43-.06 1.3-.53 1.48-1.04.18-.51.18-.95.13-1.04-.05-.09-.2-.15-.42-.26Z"/></svg>